<svg xmlns="http://www.w3.org/2000/svg" xmlns:xlink="http://www.w3.org/1999/xlink" viewBox="0 0 5281.65 1524.81"><defs><linearGradient id="a" x1="69.86" y1="370.05" x2="386" y2="487.67" gradientUnits="userSpaceOnUse"><stop offset="0" stop-color="#b07515"/><stop offset="0.15" stop-color="#e1ba60"/><stop offset="0.22" stop-color="#f5d77f"/><stop offset="0.35" stop-color="#ffffd7"/><stop offset="0.49" stop-color="#f5d77f"/><stop offset="1" stop-color="#b07515"/></linearGradient><linearGradient id="b" x1="189.08" y1="977.33" x2="299.27" y2="974.44" gradientTransform="translate(88.44 -20.51) rotate(5.14)" gradientUnits="userSpaceOnUse"><stop offset="0" stop-color="#b07515"/><stop offset="0.16" stop-color="#e1ba60"/><stop offset="0.24" stop-color="#f5d77f"/><stop offset="0.5" stop-color="#ffffd7"/><stop offset="0.54" stop-color="#f5d77f"/><stop offset="1" stop-color="#b07515"/></linearGradient><linearGradient id="c" x1="104.16" y1="967.25" x2="209.22" y2="979.09" gradientTransform="translate(-83.13 18.56) rotate(-4.93)" gradientUnits="userSpaceOnUse"><stop offset="0" stop-color="#b07515"/><stop offset="0.21" stop-color="#e1ba60"/><stop offset="0.32" stop-color="#f5d77f"/><stop offset="0.36" stop-color="#ffffd7"/><stop offset="0.46" stop-color="#f5d77f"/><stop offset="1" stop-color="#b07515"/></linearGradient><linearGradient id="d" x1="1252.01" y1="439.54" x2="1795.84" y2="439.54" gradientUnits="userSpaceOnUse"><stop offset="0" stop-color="#b07515"/><stop offset="0.3" stop-color="#e1ba60"/><stop offset="0.45" stop-color="#f5d77f"/><stop offset="0.62" stop-color="#ffffd7"/><stop offset="0.78" stop-color="#f5d77f"/><stop offset="1" stop-color="#b07515"/></linearGradient><linearGradient id="e" x1="1737.8" y1="1064.59" x2="1737.8" y2="841.6" gradientUnits="userSpaceOnUse"><stop offset="0" stop-color="#b07515"/><stop offset="0.28" stop-color="#e1ba60"/><stop offset="0.41" stop-color="#f5d77f"/><stop offset="0.55" stop-color="#ffffd7"/><stop offset="0.69" stop-color="#f5d77f"/><stop offset="1" stop-color="#b07515"/></linearGradient><linearGradient id="f" x1="1521.77" y1="1276.14" x2="2147.63" y2="1414.4" gradientUnits="userSpaceOnUse"><stop offset="0" stop-color="#b07515"/><stop offset="0.2" stop-color="#e1ba60"/><stop offset="0.3" stop-color="#f5d77f"/><stop offset="0.44" stop-color="#ffffd7"/><stop offset="0.54" stop-color="#f5d77f"/><stop offset="1" stop-color="#b07515"/></linearGradient><linearGradient id="g" x1="1596" y1="993.07" x2="2457.46" y2="775.55" gradientUnits="userSpaceOnUse"><stop offset="0" stop-color="#b07515"/><stop offset="0.06" stop-color="#b37a1a"/><stop offset="0.14" stop-color="#bd8829"/><stop offset="0.23" stop-color="#cd9f42"/><stop offset="0.32" stop-color="#e4bf65"/><stop offset="0.38" stop-color="#f5d77f"/><stop offset="0.46" stop-color="#ffffd7"/><stop offset="0.54" stop-color="#f5d77f"/><stop offset="0.85" stop-color="#c49133"/><stop offset="1" stop-color="#b07515"/></linearGradient><linearGradient id="h" x1="1309.11" y1="284.43" x2="1309.11" y2="21.31" gradientUnits="userSpaceOnUse"><stop offset="0" stop-color="#b07515"/><stop offset="0.26" stop-color="#e1ba60"/><stop offset="0.39" stop-color="#f5d77f"/><stop offset="0.55" stop-color="#ffffd7"/><stop offset="0.68" stop-color="#f5d77f"/><stop offset="1" stop-color="#b07515"/></linearGradient><linearGradient id="i" x1="1265.66" y1="972.22" x2="1409.44" y2="972.22" xlink:href="#d"/><linearGradient id="j" x1="339.85" y1="1176.9" x2="1185.13" y2="1159.33" gradientUnits="userSpaceOnUse"><stop offset="0" stop-color="#b07515"/><stop offset="0.26" stop-color="#e1ba60"/><stop offset="0.39" stop-color="#f5d77f"/><stop offset="0.52" stop-color="#ffffd7"/><stop offset="0.66" stop-color="#f5d77f"/><stop offset="1" stop-color="#b07515"/></linearGradient><linearGradient id="k" x1="570.35" y1="1438.89" x2="634.36" y2="1443.43" gradientUnits="userSpaceOnUse"><stop offset="0" stop-color="#b07515"/><stop offset="0.16" stop-color="#e1ba60"/><stop offset="0.24" stop-color="#f5d77f"/><stop offset="0.39" stop-color="#ffffd7"/><stop offset="0.58" stop-color="#f5d77f"/><stop offset="1" stop-color="#b07515"/></linearGradient><linearGradient id="l" x1="524.02" y1="996.28" x2="1171.89" y2="722.97" gradientUnits="userSpaceOnUse"><stop offset="0" stop-color="#b07515"/><stop offset="0.23" stop-color="#e1ba60"/><stop offset="0.35" stop-color="#f5d77f"/><stop offset="0.5" stop-color="#ffffd7"/><stop offset="0.65" stop-color="#f5d77f"/><stop offset="1" stop-color="#b07515"/></linearGradient><linearGradient id="m" x1="249.02" y1="1242.53" x2="1159.75" y2="1056.94" gradientUnits="userSpaceOnUse"><stop offset="0" stop-color="#b07515"/><stop offset="0.16" stop-color="#e1ba60"/><stop offset="0.24" stop-color="#f5d77f"/><stop offset="0.35" stop-color="#ffffd7"/><stop offset="0.46" stop-color="#f5d77f"/><stop offset="1" stop-color="#b07515"/></linearGradient><linearGradient id="n" x1="2896.56" y1="655.99" x2="2826.25" y2="155.75" gradientUnits="userSpaceOnUse"><stop offset="0" stop-color="#b07515"/><stop offset="0.39" stop-color="#e1ba60"/><stop offset="0.58" stop-color="#f5d77f"/><stop offset="0.66" stop-color="#fcf3bc"/><stop offset="0.71" stop-color="#ffffd7"/><stop offset="0.74" stop-color="#fdf9c9"/><stop offset="0.8" stop-color="#f9e8a4"/><stop offset="0.86" stop-color="#f5d77f"/><stop offset="1" stop-color="#b07515"/></linearGradient><linearGradient id="o" x1="3258.67" y1="649.47" x2="3186.82" y2="138.24" xlink:href="#n"/><linearGradient id="p" x1="3740.87" y1="670.62" x2="3666.9" y2="144.3" xlink:href="#n"/><linearGradient id="q" x1="4216.13" y1="682.62" x2="4143.23" y2="163.92" xlink:href="#n"/><linearGradient id="r" x1="4693.62" y1="671.45" x2="4619.79" y2="146.1" xlink:href="#n"/><linearGradient id="s" x1="2693.09" y1="1347.53" x2="2603.85" y2="712.54" xlink:href="#n"/><linearGradient id="t" x1="3325.65" y1="1320.88" x2="3244.14" y2="740.84" xlink:href="#n"/><linearGradient id="u" x1="3999.24" y1="1315.9" x2="3913.57" y2="706.31" xlink:href="#n"/><linearGradient id="v" x1="4515.55" y1="1320.64" x2="4434.6" y2="744.62" xlink:href="#n"/><linearGradient id="w" x1="5021.38" y1="1341.11" x2="4934.47" y2="722.68" xlink:href="#n"/></defs><title>Монтажная область 1</title><path d="M382.69,538.56H63.93A9.28,9.28,0,0,1,55.25,526L144.4,289.3a9.28,9.28,0,0,1,8.68-6H295.56a9.26,9.26,0,0,1,8.7,6.06l87.13,236.73A9.27,9.27,0,0,1,382.69,538.56Z" style="fill:url(#a)"/><rect x="264.56" y="553.82" width="16.45" height="842.63" rx="0.54" ry="0.54" transform="translate(-86.24 28.35) rotate(-5.14)" style="fill:url(#b)"/><rect x="165.85" y="553.82" width="16.45" height="842.63" rx="0.54" ry="0.54" transform="translate(84.42 -11.35) rotate(4.93)" style="fill:url(#c)"/><path d="M1327.52,700.86V439.08a8.23,8.23,0,0,1,6.69-8.08l438-83.27a8.23,8.23,0,0,0,6.69-8.08v-136a8.22,8.22,0,0,0-8.22-8.23H1252V178.21h535.61a8.23,8.23,0,0,1,8.22,8.23V351.67a8.22,8.22,0,0,1-6.68,8.08L1349.65,443.5a8.23,8.23,0,0,0-6.68,8.08V700.86Z" style="fill:url(#d)"/><rect x="1626.3" y="870.95" width="223" height="190.1" rx="0.92" ry="0.92" style="fill:url(#e)"/><path d="M1507.49,1357.27a96.25,96.25,0,0,1,18.31-9.76,167.09,167.09,0,0,1,19.79-6.5,304.72,304.72,0,0,1,41-7.49c13.79-1.59,27.63-2.57,41.49-3.19s27.71-.68,41.56-.6,27.69.5,41.51,1.11,27.64,1.38,41.44,2.31q41.39,3,82.61,7.28c13.75,1.46,27.44,3,41.15,4.33s27.42,2.61,41.13,3.82c27.43,2.35,54.89,4.06,82.36,4.7s55,0,82.27-3c13.66-1.45,27.24-3.59,40.73-6.31,6.73-1.42,13.45-2.93,20.1-4.72s13.28-3.68,19.87-5.75c-6.42,2.52-12.89,5-19.46,7.14s-13.22,4.1-19.9,5.93a402.2,402.2,0,0,1-40.72,8.41,570,570,0,0,1-83,6c-27.73.23-55.42-1.14-83-3.05s-55.15-4.78-82.57-7.53c-13.72-1.33-27.43-2.79-41.15-4.06s-27.44-2.49-41.16-3.56-27.46-2.16-41.19-3q-10.31-.63-20.61-1.12c-6.87-.31-13.74-.66-20.61-.9q-20.62-.75-41.24-.64c-13.74.06-27.47.47-41.16,1.5a317.52,317.52,0,0,0-40.79,5.25,164.83,164.83,0,0,0-19.9,5.19A95.85,95.85,0,0,0,1507.49,1357.27Z" style="fill:url(#f)"/><path d="M1481.49,564l288.92-120.39a6.74,6.74,0,0,1,5.89.34l322,179.76a2.81,2.81,0,0,0,4.18-2.46V552.06a2.81,2.81,0,0,1,2.82-2.81h73.88a2.81,2.81,0,0,1,2.81,2.81V679.51a2.83,2.83,0,0,0,1.05,2.19l182.3,147.44a1.41,1.41,0,0,1-.89,2.51h-197.5a1.41,1.41,0,0,0-1.41,1.41v519.87a2.39,2.39,0,0,1-2.4,2.39h-44.55a2.39,2.39,0,0,1-2.4-2.39V800.16a1.41,1.41,0,0,1,1.41-1.41h125.16a1.41,1.41,0,0,0,.73-2.62l-467-283.44a6.78,6.78,0,0,0-6.25-.39l-283.38,126a6.76,6.76,0,0,1-9.5-6.18V570.2A6.73,6.73,0,0,1,1481.49,564Z" style="fill:url(#g)"/><path d="M1725.42,290.92H901s-30.15-52.11-30.15-112.11S901,66.7,901,66.7h824.39s21.93,45.79,21.93,112.11S1725.42,290.92,1725.42,290.92Z" style="fill:url(#h)"/><path d="M1398,1218.83l-12,10.11a57,57,0,0,1-27.9,12.92,132.2,132.2,0,0,1-41.36,0,57.07,57.07,0,0,1-27.9-12.92l-11.85-10a32.25,32.25,0,0,1-11.3-27.3L1299.47,789a26.27,26.27,0,0,0-2.13-12.8l-28.73-65.59a6.86,6.86,0,0,1,6.29-9.62h125.53a6.86,6.86,0,0,1,6.36,9.44L1380,776.55a26.43,26.43,0,0,0-1.85,11.93l31.16,403.27A32.26,32.26,0,0,1,1398,1218.83Z" style="fill:url(#i)"/><path d="M580.52,1160.71a25.14,25.14,0,0,1,18.94-30.39c55.53-12.45,116.35-35.46,271.94-51.91s263.07,3.95,280.05,10.88,20.17,12,20.17,25v112.15c0,14-10.22,25.15-25.33,25.15-293.4,0-525.26-3.79-525.26-3.79a25.15,25.15,0,0,1-24.28-19.29Z" style="fill:url(#j)"/><path d="M620.08,1483.35h-34a3.81,3.81,0,0,1-3.82-3.81v-78.75a3.81,3.81,0,0,1,4.06-3.81l45.24,2.9a3.81,3.81,0,0,1,3.53,4.39l-11.2,75.85A3.82,3.82,0,0,1,620.08,1483.35Z" style="fill:url(#k)"/><path d="M560.13,1089.83c6.61,7.45,28.13,19.74,37.73,17.11,43.27-11.84,167.82-44.3,264-53.21,108.13-10,277.19-2.88,305.68-1.57a4,4,0,0,0,4.14-4V658.52a4,4,0,0,0-3.69-4c-33.12-2.11-280.64-16.95-394.91,4.21-109.51,20.28-151.65,55.9-183.6,87.88s-48.4,85-51.15,113.79-2.05,96.64,12.42,130.9c11.17,26.44,38.73,66.73,38.73,69.7s-23-22.79-36.07-42.95S517.8,975.13,517.8,871c-1.37-67.63,53.47-140.75,85-170s77.4-48.09,115.88-59.47c64.62-19.13,140.46-24.34,187.08-25.07s97.76,2.61,152.63,5.94c41.57,2.52,93.82,7.31,109,8.73a4,4,0,0,0,4.32-3.94V584.47a3.94,3.94,0,0,0-3.66-4c-28.16-2-210.55-14.82-268.69-14.82-100.53,0-193.75,20.1-260.92,56.2S517.8,728.4,492.72,786.18C468.39,842.25,465,890,471.37,933.4s16.27,59.33,35.46,92.91S560.13,1089.83,560.13,1089.83Z" style="fill:url(#l)"/><path d="M328.62,988.61S314.05,1001,314.23,1016c.34,29.48,13.36,42.5,13.36,42.5s9.89,9.72,21.59,13.62c11,3.66,28.77-.37,34-5.15,8.19-7.5,4.87-28.35,7.84-31.09s4.46,23-.68,31.87-20,12.31-35.64,14c-9.26,1-19.86-4.65-26.63-11.32s-20.07-25.46-22.73-43.85,16.46-45.59,16.46-45.59,12.85-16.35,34.1-15.67,45.31,17.71,45.31,17.71l48.08,56.23,43.87,77.45,15.76,96s6.23,36.75,27.47,68.28,65.07,36.6,65.07,36.6,48.62,7.93,109.67,5.48l199.23-8,159-3.65,101.9-1.78a3.25,3.25,0,0,0,3.2-3.25v-33.87a3.24,3.24,0,0,0-3.12-3.25c-23.9-.82-180.82-5.83-334.11-1.72-93.2,2.49-228.34,11-250.87-7.58-25-20.57-13.6-90.7-31.42-130.45-8.91-19.88-43.3-16.2-75.82-91.36-16.07-37.14-26.43-75.86-51.1-99.62S348,910,322.45,913.9s-65.12,30.85-73.29,52.78c-7.42,19.9-4.39,58.26,5,76.08s36.72,55.75,59.37,64.55,55.67,12.83,69.91,9.64,37.73-10.44,50.76-2.56-1.53,82.13,4.78,113.36,7.82,74.08,25.54,99.37,42.33,47.4,57.64,51.51,129.09,8.22,196.5,8.22c176.74,0,422.79-16.53,452.78-18.59a3.24,3.24,0,0,0,3-3.25v-36.5a3.24,3.24,0,0,0-3.32-3.26c-25.3.64-189,4.85-274.15,9.25-89.94,4.66-272.81,10.22-307.47,1-52.11-13.94-72.39-52.1-72.39-52.1s-24-31.71-28.79-121.45c-3.52-65.86-57.8-127.19-57.8-127.19s-20.64-26.52-29.94-34.44-20.33-19.65-37.24-22.39S328.62,988.61,328.62,988.61Z" style="fill:url(#m)"/><path d="M2895.36,618.77l60.85,9.73v19.11H2766.6V628.5l60.84-9.73V192.62l-60.84-9.38v-19.1h189.61v19.1l-60.85,9.38Z" style="fill:url(#n)"/><path d="M3218,164.14q59.07,0,106.66,12.61t81.18,41.11q33.6,28.47,51.82,73.9t18.22,111.41q0,59.13-14.86,104.91t-44.92,77.16q-30.08,31.37-75.88,47.59t-107.71,16.22q-20.17,0-44-.18t-46.87-.54q-23-.36-43.69-.54t-34.49-.18h-60.84V628.5l60.84-9.73V192.62l-60.84-9.38v-19.1Zm184,238.31q0-53.35-14.5-92.12t-41.57-64q-27.06-25.23-65.26-37.5t-85.26-12.26h-63.67V613.72q10.62.74,23,1.08t25.47.9q13.08.54,26.36.72t26,.18q44.91,0,76.94-13.52A127.06,127.06,0,0,0,3362,562.71q20.51-26.87,30.24-66.88T3401.92,402.45Z" style="fill:url(#o)"/><path d="M3525.73,628.5l60.84-9.73V192.62l-60.84-9.38v-19.1h355.86V279.87h-23.35l-11.32-78.24q-11.33-1.44-27.41-2.52t-32.72-1.62q-16.64-.54-31.48-.73t-23-.18h-77.47V385.5H3782.9l11-57.68h22.64V476.36h-22.64l-11-58.41H3654.84V615.16h93.39q21.93,0,41.39-.54t35-1.26q15.56-.72,26.71-1.8t16.45-2.17L3888,520h23.35l-6.73,127.63H3525.73Z" style="fill:url(#p)"/><path d="M4110.46,628.5v19.11h-156V628.5l53.77-9.73,161.66-458.6h67.21l168,458.6,60.13,9.73v19.11H4264.69V628.5l63.68-9.73-47.05-139.53H4094.54l-47.75,139.53Zm76.06-416.41-81.36,234.7h165.19Z" style="fill:url(#q)"/><path d="M4693.78,183.24l-73.22,9.38v424h93.38q44.22,0,72.17-2.52t38.55-4.69l21.94-100.58h23l-6.37,138.8H4491.44V628.5l60.84-9.73V192.62l-60.84-9.38v-19.1h202.34Z" style="fill:url(#r)"/><path d="M2365.83,1314.08v-22.46l71.49-11.43V779.46l-71.49-11V746H2589v22.46l-71.5,11v223.25h262.28V779.46l-71.49-11V746h222.78v22.46l-71.49,11v500.73l71.49,11.43v22.46H2708.33v-22.46l71.49-11.43V1040.84H2517.54v239.35l71.5,11.43v22.46Z" style="fill:url(#s)"/><path d="M3012.25,1029.4q0-75.41,18.08-130.05t52.57-90.24q34.5-35.58,85.21-52.52t116.38-17q63.6,0,114.1,17t85.83,52.52q35.32,35.6,54,90.24t18.71,130.05q0,75.4-18.71,130.69t-54,91.29q-35.34,36-85.83,53.59t-114.1,17.58q-63.59,0-113.88-17.58T3085,1251.38q-35.33-36-54-91.29T3012.25,1029.4Zm86.86,0q0,59.31,8.73,107.18t29.93,81.76a143.37,143.37,0,0,0,56.94,52.31q35.74,18.43,89.78,18.43t89.78-18.43a144.87,144.87,0,0,0,57.15-52.31q21.4-33.88,30.14-81.76t8.73-107.18q0-58.88-8.73-106.33t-30.14-80.7a141.88,141.88,0,0,0-57.15-51q-35.74-17.79-89.78-17.79t-89.78,17.79a140.4,140.4,0,0,0-56.94,51q-21.2,33.25-29.93,80.7T3099.11,1029.4Z" style="fill:url(#t)"/><path d="M4095.08,779.46l-74.81-11V746h190v22.46l-71.49,11v339.33a298.36,298.36,0,0,1-9.56,75.61,162.57,162.57,0,0,1-33.67,65q-24.11,28.38-65.88,45.75t-105.78,17.37q-111,0-166.05-51t-55.08-144.67V779.46l-71.49-11V746H3854v22.46l-71.49,11v341q0,34.74,8.1,63.33t25.77,48.93q17.67,20.34,45.73,31.35t68,11q43.65,0,74.82-11t51.33-30.93a119,119,0,0,0,29.51-48.29q9.36-28.38,9.35-62.7Z" style="fill:url(#u)"/><path d="M4307.15,1161.15h27l14.55,76.67q7.89,10.17,22,19.28a187.67,187.67,0,0,0,31.38,16.1,213.63,213.63,0,0,0,36.37,11,180.79,180.79,0,0,0,37.41,4q31.58,0,54.86-8.69t38.45-23.93a97,97,0,0,0,22.65-36,132.73,132.73,0,0,0,7.48-45.33q0-30.49-12.67-50.41a114.19,114.19,0,0,0-33.25-33.68,217.86,217.86,0,0,0-46.76-23.3q-26.19-9.53-53.83-19.27T4399,1026a185.29,185.29,0,0,1-46.76-30.08q-20.57-18.21-33.25-45.11t-12.68-66.3q0-33,12.47-59.94a123.34,123.34,0,0,1,36.58-45.75q24.11-18.86,59.23-29t80-10.17a530.9,530.9,0,0,1,78.14,5.51q37,5.51,68.17,12.71V876.05h-27l-14.55-69.48q-18.29-13.55-44.88-22.45t-59.86-8.9q-30.77,0-53,6.78t-36.79,18.43A73,73,0,0,0,4383.21,828a82.81,82.81,0,0,0-7.07,34.1q0,27.54,12.68,45.75A113.17,113.17,0,0,0,4422.07,939a235.5,235.5,0,0,0,47,22.24q26.39,9.31,54,19.27t54,22.45a182.45,182.45,0,0,1,47,31.78q20.58,19.27,33.26,47t12.67,68.41q0,39.4-11.84,71.17a142.65,142.65,0,0,1-35.75,54.44q-23.9,22.66-59.85,34.74T4478,1322.55a501,501,0,0,1-50.71-2.54q-24.94-2.55-47-6.78t-40.73-9.74q-18.7-5.51-32.42-11Z" style="fill:url(#v)"/><path d="M4768.6,1291.62l71.49-11.43V779.46l-71.49-11V746h418.13V882H5159.3L5146,790.05q-13.31-1.68-32.21-3t-38.45-1.91q-19.55-.63-37-.85t-27-.21h-91v222h150.46l12.88-67.78h26.61v174.53h-26.61l-12.88-68.62H4920.31V1276H5030q25.76,0,48.63-.63t41.15-1.49q18.29-.84,31.38-2.12t19.32-2.54l23.7-105.06h27.43l-7.9,150H4768.6Z" style="fill:url(#w)"/></svg>