<svg xmlns="http://www.w3.org/2000/svg" width="51" height="66" viewBox="0 0 51 66">
  <metadata><?xpacket begin="﻿" id="W5M0MpCehiHzreSzNTczkc9d"?>
<x:xmpmeta xmlns:x="adobe:ns:meta/" x:xmptk="Adobe XMP Core 5.6-c142 79.160924, 2017/07/13-01:06:39        ">
   <rdf:RDF xmlns:rdf="http://www.w3.org/1999/02/22-rdf-syntax-ns#">
      <rdf:Description rdf:about=""/>
   </rdf:RDF>
</x:xmpmeta>
                                                                                                    
                                                                                                    
                                                                                                    
                                                                                                    
                                                                                                    
                                                                                                    
                                                                                                    
                                                                                                    
                                                                                                    
                                                                                                    
                                                                                                    
                                                                                                    
                                                                                                    
                                                                                                    
                                                                                                    
                                                                                                    
                                                                                                    
                                                                                                    
                                                                                                    
                                                                                                    
                           
<?xpacket end="w"?></metadata>
<defs>
    <style>
      .cls-1 {
        fill: #eec847;
        fill-rule: evenodd;
      }
    </style>
  </defs>
  <path class="cls-1" d="M639.668,305.544a0.734,0.734,0,0,1,.3.092h0l0.048,0.03a0.733,0.733,0,0,1,.287.384l0,0.016h0l0,0.016h0l0.012,0.053,0,0.015v0a0.737,0.737,0,0,1-.084.479l0,0a0.555,0.555,0,0,1-.029.048l-5.346,7.954,4.479,2.668a0.663,0.663,0,0,1,.081.048l12.755,7.6,4.817-8.83a0.734,0.734,0,0,1,.285-0.289l0.037-.023a0.729,0.729,0,0,1,1,.267l5.071,8.8,12.394-7a0.729,0.729,0,0,1,.517-0.292l4.9-2.766-5.739-8.64a0.734,0.734,0,0,1,.593-1.141l3.715-.373-10.715-6.395a0.732,0.732,0,0,1,.743-1.262l12.622,7.533a0.734,0.734,0,0,1-.3,1.36l-4.767.478,5.5,8.283a0.734,0.734,0,0,1-.2,1.018,0.6,0.6,0,0,1-.08.047l-5.472,3.089v8.75a0.736,0.736,0,0,1-.368.636l-18.6,10.681a0.73,0.73,0,0,1-.8-0.01l-18.62-10.439a0.733,0.733,0,0,1-.429-0.668v-9.391l-4.864-2.9a0.736,0.736,0,0,1-.2-1.019l5.107-7.6-5.68-.661a0.734,0.734,0,0,1-.269-1.371l13.578-8.041a0.733,0.733,0,0,1,.743,1.263L634.974,305l4.694,0.546h0Zm35.472-30.929a0.733,0.733,0,1,1,1.035,1.038l-4.583,4.6a0.733,0.733,0,1,1-1.035-1.038l4.583-4.6h0Zm-18.148-.88a0.732,0.732,0,1,1,1.464,0v6.7a0.732,0.732,0,1,1-1.464,0v-6.7h0Zm-18.117,1.718a0.733,0.733,0,1,1,1.035-1.038l4.434,4.449a0.733,0.733,0,1,1-1.035,1.038l-4.434-4.449h0Zm14.246,14.815,3.893-5.226a0.729,0.729,0,0,1,1.023-.149,0.716,0.716,0,0,1,.162.168l4.076,4.972,1.582-4.782a0.729,0.729,0,1,1,1.383.459l-1.772,5.36h7.382a0.734,0.734,0,0,1,0,1.468h-7.867l-4.437,13.418a0.73,0.73,0,0,1-1.4.063l-4.774-13.481H644.8a0.734,0.734,0,0,1,0-1.468h7.05l-1.893-5.345a0.73,0.73,0,1,1,1.377-.488l1.782,5.031h0Zm8.116,0.8-3.609-4.4-3.278,4.4h6.887Zm0.21,1.468h-7.522l3.89,10.984,3.632-10.984h0Zm-4.441,44.479V319.155l-3.919,7.187a0.729,0.729,0,0,1-1,.258l-12.341-7.35v8.091l17.261,9.676h0Zm1.464-17.748V337l17.167-9.856v-7.5l-12.162,6.864a0.73,0.73,0,0,1-1-.281l-4.01-6.959h0Zm-0.626-14.539,12.427-12.469-6.025-6.046H650.954l-5.58,5.6,12.47,12.916h0Zm13.979-11.95-13.468,13.514h0l-0.008.007a0.728,0.728,0,0,1-1.032-.014l-13.452-13.934-0.03-.029a0.735,0.735,0,0,1,0-1.038l6.3-6.319a0.727,0.727,0,0,1,.522-0.219h13.9a0.725,0.725,0,0,1,.517.215l6.757,6.78a0.735,0.735,0,0,1,0,1.038h0Zm-30.771,13.471,16.583,9.377,16.988-9.859-8.669-5.16,1.066-1.07,9.421,5.605a0.724,0.724,0,0,1,.26.264,0.734,0.734,0,0,1-.265,1l-18.4,10.68a0.731,0.731,0,0,1-.753.023l-18.033-10.2,0,0a0.72,0.72,0,0,1-.267-0.259,0.732,0.732,0,0,1,.245-1l9.558-5.847,1.04,1.077-8.774,5.371h0Z" transform="translate(-632 -273)"/>
</svg>