<svg id="Слой_1" data-name="Слой 1" xmlns="http://www.w3.org/2000/svg" viewBox="0 0 226.77 226.77"><defs><style>.cls-1{fill:#eec847;}</style></defs><title>Монтажная область 13</title><path class="cls-1" d="M205.8,15.14V169.85H157.27v41.94H21l.48-152h62.4V15.14H205.8m10-10H73.88V49.76H11.52l-.55,172h156.3V179.85H215.8V5.14ZM98.69,132.89l18.09-37.2h9.76l14.77,59H126.84L119,120.06l-17.56,34.6H95.32L78.14,120,70.2,154.66H55.79l14.76-59h9.76Zm54.66-46.7h-8.62q.35-7.51,4.72-11.83a16.65,16.65,0,0,1,18.7-2.53,14.21,14.21,0,0,1,7.13,12,20.38,20.38,0,0,1-2.35,8.91q-2.35,4.77-8.62,11.28l-5.22,5.5h16.57v8.18h-32.2v-4.23L157.84,98.8c3.47-3.52,5.79-6.35,6.93-8.49a12.45,12.45,0,0,0,1.73-5.79,6,6,0,0,0-1.79-4.44,6.28,6.28,0,0,0-4.6-1.76,6.12,6.12,0,0,0-4.74,2.12A8.84,8.84,0,0,0,153.35,86.19Z"/></svg>