<svg id="Слой_1" data-name="Слой 1" xmlns="http://www.w3.org/2000/svg" viewBox="0 0 226.77 226.77"><defs><style>.cls-1{fill:#eec847;}</style></defs><title>Монтажная область 13 копия</title><polygon class="cls-1" points="71.52 75.73 64.52 75.67 64.26 108.93 43.39 108.93 43.39 115.93 71.21 115.93 71.52 75.73"/><polygon class="cls-1" points="86.08 177.28 86.08 205.97 93.08 205.97 93.08 184.25 198.99 183.73 198.95 176.73 86.08 177.28"/><path class="cls-1" d="M191.85,65.25a41.72,41.72,0,0,0,1.71-12c-.5-19.46-20.73-43.3-45.09-43.72h-.7c-25,0-45.7,23.2-46.21,42.73a44.57,44.57,0,0,0,1.86,13H43.36L43.11,35.5h-4c-9.85,0-28.84,5.16-30.24,24.71-1.18,16.58-.53,76.48-.18,108.66.1,8.85.17,15.23.17,17.88,0,20.91,18.16,28.86,18.94,29.18l.75.32H210.64v-151Zm-55.46-9.92a11.17,11.17,0,1,1,16.27,9.92s-1.63,1.28-5.24,1.28-5-1.28-5-1.28A11.18,11.18,0,0,1,136.39,55.33Zm42.9,17.92c-7.87,17.13-22.74,36.36-31.87,46.93C140.47,112,124.28,92,115.86,73.25l-3.12-8a39.1,39.1,0,0,1-2.18-12.8C111,37.34,128.5,18.5,147.8,18.5h.51c19.05.33,35.85,19.49,36.25,35a35.77,35.77,0,0,1-2.08,11.8Zm-15.37-8a19,19,0,0,0,2.8-9.92,19.17,19.17,0,1,0-35.53,9.92,21,21,0,0,0,4.29,5.25,20.26,20.26,0,0,0,5.34,2.75,18.8,18.8,0,0,0,13.48,0,20.16,20.16,0,0,0,5.22-3.16A21.89,21.89,0,0,0,163.92,65.25Zm-147-4.47c.84-11.71,10.71-15.49,17-16.7l-.26,116.74C29.5,162,22.3,164.49,16.73,169.5c0-.24,0-.47,0-.71C16.37,136.72,15.72,77,16.88,60.78ZM202.64,208.25H30.29c-2.84-1.45-13.4-7.77-13.4-21.5,0-14.88,21.22-18.77,21.43-18.81l3.31-.57.21-94.12h64.33C116.9,99.9,142.68,128.5,144.06,130l3.32,3.66,3.33-3.64c1.41-1.54,27.68-30.49,38.38-56.79h13.55Z"/><polygon class="cls-1" points="43.39 135.11 43.39 142.11 64.26 142.11 64.75 206 71.75 205.94 71.21 135.11 43.39 135.11"/><polygon class="cls-1" points="94.82 75.7 87.82 75.7 87.82 159.82 200.69 160.37 200.72 153.37 94.82 152.85 94.82 75.7"/></svg>