<svg id="Слой_1" data-name="Слой 1" xmlns="http://www.w3.org/2000/svg" viewBox="0 0 226.77 226.77"><defs><style>.cls-1{fill:#eec847;}</style></defs><title>Монтажная область 13 копия 2</title><path class="cls-1" d="M216,95C186.23,71.9,156.31,49,126.52,25.9c-6.51-5-12.54-5-18.92.14-7.24,5.82-14.69,11.38-22,17.06-22.9,17.65-45.85,35.24-68.65,53-6.45,5-7.45,12.84-2.93,18.37s11.28,6,18,1.25c3.32-2.34,6.5-4.89,11.36-8.57v9.7c0,24.27-.05,48.54,0,72.81,0,12.84,5.11,18,17.66,18.07q56.16.1,112.32,0c12.54,0,17.69-5.35,17.71-18.06,0-24.27,0-48.54,0-72.81,0-2.64.25-5.28.45-9.3l9.24,7c7.87,5.91,15,5.81,19.79-.26S223.72,100.91,216,95ZM147.4,152.14a25,25,0,0,1-7.27,9.13q-4.44,3.36-12.79,5.11v16H116.05V166.74a35.86,35.86,0,0,1-13.4-4A56.77,56.77,0,0,1,88.6,151.6L100,139.89q11,11.72,21.26,11.71a12.47,12.47,0,0,0,9-3.63,11.89,11.89,0,0,0,1.35-15.83q-2.46-3.12-9.49-6.37-14.3-6.6-19.34-10.48a26.24,26.24,0,0,1-7.54-8.71,22.18,22.18,0,0,1-2.49-10.3,20.92,20.92,0,0,1,6.61-15.53,24.69,24.69,0,0,1,16.7-6.93v-6h11.29V74.6a36.79,36.79,0,0,1,9.88,3.72,49.29,49.29,0,0,1,9.58,7.93L135.21,97.54q-7.94-8.16-15.68-8.17a11.05,11.05,0,0,0-7.42,2.43,7.25,7.25,0,0,0-2.85,5.62,7.84,7.84,0,0,0,2.52,5.35q2.46,2.7,10,5.76Q135.08,114.07,140,118a26.78,26.78,0,0,1,7.57,9.37,27.84,27.84,0,0,1,2.64,12.26A28.17,28.17,0,0,1,147.4,152.14Z"/></svg>